<svg width="18" height="18" viewBox="0 0 18 18" fill="none" xmlns="http://www.w3.org/2000/svg">
<path d="M9.00002 9.83317C9.46026 9.83317 9.83335 9.46007 9.83335 8.99984C9.83335 8.5396 9.46026 8.1665 9.00002 8.1665C8.53978 8.1665 8.16669 8.5396 8.16669 8.99984C8.16669 9.46007 8.53978 9.83317 9.00002 9.83317Z" fill="#03435F"/>
<path d="M12.3333 9.83317C12.7936 9.83317 13.1667 9.46007 13.1667 8.99984C13.1667 8.5396 12.7936 8.1665 12.3333 8.1665C11.8731 8.1665 11.5 8.5396 11.5 8.99984C11.5 9.46007 11.8731 9.83317 12.3333 9.83317Z" fill="#03435F"/>
<path d="M5.66665 9.83317C6.12688 9.83317 6.49998 9.46007 6.49998 8.99984C6.49998 8.5396 6.12688 8.1665 5.66665 8.1665C5.20641 8.1665 4.83331 8.5396 4.83331 8.99984C4.83331 9.46007 5.20641 9.83317 5.66665 9.83317Z" fill="#03435F"/>
<path d="M14.8916 3.10843C13.5243 1.73218 11.7197 0.876111 9.78883 0.687801C7.85798 0.499492 5.92193 0.990748 4.31446 2.07688C2.707 3.163 1.52884 4.77594 0.983113 6.63761C0.437387 8.49928 0.558289 10.493 1.32498 12.2751C1.40489 12.4407 1.4311 12.6272 1.39998 12.8084L0.666643 16.3334C0.63839 16.4686 0.644159 16.6086 0.683433 16.741C0.722706 16.8734 0.794253 16.9939 0.891643 17.0918C0.97148 17.171 1.06654 17.2333 1.17109 17.2748C1.27564 17.3164 1.38752 17.3363 1.49998 17.3334H1.66664L5.23331 16.6168C5.41458 16.595 5.59841 16.6208 5.76664 16.6918C7.54873 17.4585 9.54246 17.5794 11.4041 17.0336C13.2658 16.4879 14.8787 15.3097 15.9649 13.7023C17.051 12.0948 17.5423 10.1588 17.3539 8.22792C17.1656 6.29707 16.3096 4.49242 14.9333 3.1251L14.8916 3.10843ZM15.5833 10.0751C15.4204 11.0701 15.0339 12.0152 14.4529 12.8392C13.872 13.6632 13.1117 14.3447 12.2293 14.8325C11.3469 15.3202 10.3653 15.6015 9.35849 15.655C8.35168 15.7086 7.34583 15.5331 6.41664 15.1418C6.0871 15.0016 5.73309 14.928 5.37498 14.9251C5.21854 14.9262 5.06246 14.9401 4.90831 14.9668L2.55831 15.4418L3.03331 13.0918C3.12791 12.5828 3.06693 12.0572 2.85831 11.5834C2.46697 10.6542 2.29148 9.64839 2.34505 8.64158C2.39863 7.63477 2.67986 6.65322 3.1676 5.77081C3.65533 4.88839 4.33686 4.1281 5.16089 3.54714C5.98492 2.96618 6.92999 2.5797 7.92498 2.41677C8.96937 2.24536 10.0396 2.32508 11.047 2.64932C12.0545 2.97356 12.9703 3.533 13.7187 4.28138C14.4671 5.02976 15.0265 5.94556 15.3508 6.95304C15.675 7.96051 15.7547 9.03071 15.5833 10.0751Z" fill="#03435F"/>
</svg>
