<svg width="22" height="23" viewBox="0 0 22 23" fill="none" xmlns="http://www.w3.org/2000/svg">
<path d="M9.99998 22.8535C10.4199 22.8438 10.8229 22.6859 11.1377 22.4078C11.4525 22.1296 11.6587 21.7491 11.72 21.3335H8.21332C8.2763 21.7604 8.4922 22.1498 8.82085 22.4294C9.14951 22.709 9.56853 22.8597 9.99998 22.8535Z" fill="#21334F"/>
<path d="M19.6734 18.5531C19.0306 17.98 18.4678 17.323 18.0001 16.5998C17.4896 15.6015 17.1836 14.5113 17.1001 13.3931V10.0998C17.0974 9.69974 17.0617 9.30061 16.9934 8.90644C16.4687 8.80155 15.9644 8.61244 15.5001 8.34644C15.6771 8.91634 15.767 9.50969 15.7668 10.1064V13.3998C15.8485 14.7638 16.2237 16.0941 16.8668 17.2998C17.3271 18.0291 17.8732 18.7006 18.4934 19.2998H1.42011C2.04039 18.7006 2.58651 18.0291 3.04678 17.2998C3.68986 16.0941 4.06507 14.7638 4.14678 13.3998V10.0998C4.14327 9.32823 4.29199 8.56357 4.58441 7.84959C4.87683 7.1356 5.30722 6.4863 5.85093 5.93888C6.39463 5.39146 7.04098 4.95666 7.75296 4.65938C8.46494 4.3621 9.22857 4.20818 10.0001 4.20644C11.1293 4.20734 12.2331 4.54127 13.1734 5.16644C13.0698 4.78576 13.0116 4.39414 13.0001 3.99977V3.57977C12.304 3.23735 11.5562 3.0121 10.7868 2.91311V2.07311C10.7868 1.83706 10.693 1.61069 10.5261 1.44378C10.3592 1.27687 10.1328 1.18311 9.89678 1.18311C9.66074 1.18311 9.43436 1.27687 9.26746 1.44378C9.10055 1.61069 9.00678 1.83706 9.00678 2.07311V2.94644C7.28393 3.18947 5.70716 4.0476 4.5676 5.36239C3.42803 6.67719 2.8026 8.35986 2.80678 10.0998V13.3931C2.72328 14.5113 2.4173 15.6015 1.90678 16.5998C1.44737 17.3213 0.893577 17.9783 0.260114 18.5531C0.189002 18.6156 0.132008 18.6925 0.0929256 18.7787C0.0538429 18.8649 0.0335671 18.9584 0.0334473 19.0531V19.9598C0.0334473 20.1366 0.103685 20.3062 0.228709 20.4312C0.353734 20.5562 0.523303 20.6264 0.700114 20.6264H19.2335C19.4103 20.6264 19.5798 20.5562 19.7049 20.4312C19.8299 20.3062 19.9001 20.1366 19.9001 19.9598V19.0531C19.9 18.9584 19.8797 18.8649 19.8406 18.7787C19.8016 18.6925 19.7446 18.6156 19.6734 18.5531V18.5531Z" fill="#21334F"/>
<path d="M18 7.33317C19.841 7.33317 21.3334 5.84079 21.3334 3.99984C21.3334 2.15889 19.841 0.666504 18 0.666504C16.1591 0.666504 14.6667 2.15889 14.6667 3.99984C14.6667 5.84079 16.1591 7.33317 18 7.33317Z" fill="#ED342B"/>
</svg>


