<svg width="24" height="24" viewBox="0 0 24 24" fill="none" xmlns="http://www.w3.org/2000/svg">
<path d="M15.9356 19.8795C15.8233 19.8795 15.7322 19.7885 15.7322 19.6761V6.77104H8.27189V11.1053C8.27189 11.2176 8.18083 11.3087 8.0685 11.3087C7.95617 11.3087 7.86511 11.2176 7.86511 11.1053V6.56765C7.86511 6.45532 7.95617 6.36426 8.0685 6.36426H15.9356C16.0479 6.36426 16.139 6.45532 16.139 6.56765V19.6782C16.1379 19.7897 16.0472 19.8795 15.9356 19.8795Z" fill="#03435F"/>
<path d="M8.06847 19.8793C7.95614 19.8793 7.86508 19.7883 7.86508 19.6759V10.6861C7.86508 10.5738 7.95614 10.4827 8.06847 10.4827C8.1808 10.4827 8.27186 10.5738 8.27186 10.6861V19.6759C8.27186 19.7883 8.1808 19.8793 8.06847 19.8793ZM7.32203 10.141H0.20339C0.0910607 10.141 0 10.05 0 9.93763V8.06441C0 7.95209 0.0910607 7.86102 0.20339 7.86102H7.32203C7.43436 7.86102 7.52542 7.95209 7.52542 8.06441C7.52542 8.17674 7.43436 8.2678 7.32203 8.2678H0.40678V9.73424H7.32203C7.43436 9.73424 7.52542 9.82531 7.52542 9.93763C7.52542 10.05 7.43436 10.141 7.32203 10.141ZM23.7966 10.141H16.678C16.5656 10.141 16.4746 10.05 16.4746 9.93763C16.4746 9.82531 16.5656 9.73424 16.678 9.73424H23.5932V8.2678H16.678C16.5656 8.2678 16.4746 8.17674 16.4746 8.06441C16.4746 7.95209 16.5656 7.86102 16.678 7.86102H23.7966C23.9089 7.86102 24 7.95209 24 8.06441V9.93763C24 10.05 23.9089 10.141 23.7966 10.141ZM15.9356 6.77086H8.06847C7.97928 6.77017 7.90094 6.71144 7.87526 6.62601C7.84959 6.54059 7.88257 6.4484 7.95661 6.39865L11.8902 3.77492C11.9585 3.72932 12.0476 3.72932 12.1159 3.77492L16.0475 6.39662C16.1215 6.44637 16.1545 6.53855 16.1288 6.62398C16.1031 6.7094 16.0248 6.76813 15.9356 6.76882V6.77086ZM8.74576 6.36408H15.2542L12 4.18984L8.74576 6.36408Z" fill="#03435F"/>
<path d="M5.82102 22.8774H1.14306C0.824042 22.8774 0.56543 22.6188 0.56543 22.2998V9.93776C0.56543 9.82544 0.65649 9.73438 0.76882 9.73438H7.32204C7.43437 9.73438 7.52543 9.82544 7.52543 9.93776C7.52543 10.0501 7.43437 10.1412 7.32204 10.1412H0.968142V22.2978C0.968142 22.3431 0.986141 22.3865 1.01818 22.4186C1.05022 22.4506 1.09368 22.4686 1.13899 22.4686H5.81696C5.92928 22.4686 6.02035 22.5597 6.02035 22.672C6.02035 22.7843 5.92928 22.8754 5.81696 22.8754L5.82102 22.8774ZM22.8651 22.8774H18.1871C18.0748 22.8774 17.9837 22.7864 17.9837 22.674C17.9837 22.5617 18.0748 22.4706 18.1871 22.4706H22.8651C22.9594 22.4706 23.0359 22.3942 23.0359 22.2998V10.1412H16.678C16.5656 10.1412 16.4746 10.0501 16.4746 9.93776C16.4746 9.82544 16.5656 9.73438 16.678 9.73438H23.2332C23.3456 9.73438 23.4366 9.82544 23.4366 9.93776V22.2978C23.4378 22.6152 23.1825 22.8741 22.8651 22.8774Z" fill="#03435F"/>
<path d="M5.25965 17.6053H3.38643C3.27411 17.6053 3.18304 17.5142 3.18304 17.4019V12.907C3.18304 12.7947 3.27411 12.7036 3.38643 12.7036H5.25965C5.37198 12.7036 5.46304 12.7947 5.46304 12.907V17.4019C5.46304 17.5142 5.37198 17.6053 5.25965 17.6053ZM3.58982 17.1985H5.05627V13.1104H3.58982V17.1985Z" fill="#03435F"/>
<path d="M5.25965 15.3579H3.38643C3.27411 15.3579 3.18304 15.2668 3.18304 15.1545C3.18304 15.0421 3.27411 14.9511 3.38643 14.9511H5.25965C5.37198 14.9511 5.46304 15.0421 5.46304 15.1545C5.46304 15.2668 5.37198 15.3579 5.25965 15.3579ZM20.6176 17.6053H18.7444C18.6321 17.6053 18.541 17.5142 18.541 17.4019V12.907C18.541 12.7947 18.6321 12.7036 18.7444 12.7036H20.6176C20.7299 12.7036 20.821 12.7947 20.821 12.907V17.4019C20.821 17.5142 20.7299 17.6053 20.6176 17.6053ZM18.9478 17.1985H20.4142V13.1104H18.9478V17.1985Z" fill="#03435F"/>
<path d="M20.6177 15.3582H18.7444C18.6321 15.3582 18.541 15.2671 18.541 15.1548C18.541 15.0425 18.6321 14.9514 18.7444 14.9514H20.6177C20.73 14.9514 20.821 15.0425 20.821 15.1548C20.821 15.2671 20.73 15.3582 20.6177 15.3582ZM12 11.8273C10.9565 11.8273 10.1105 10.9814 10.1105 9.93783C10.1105 8.89429 10.9565 8.04834 12 8.04834C13.0436 8.04834 13.8895 8.89429 13.8895 9.93783C13.8884 10.9809 13.0431 11.8262 12 11.8273ZM12 8.45715C11.1811 8.45715 10.5173 9.12099 10.5173 9.93987C10.5173 10.7587 11.1811 11.4226 12 11.4226C12.8189 11.4226 13.4827 10.7587 13.4827 9.93987C13.4827 9.12066 12.8192 8.45624 12 8.45512V8.45715Z" fill="#03435F"/>
<path d="M12.7505 10.141H12C11.8877 10.141 11.7966 10.05 11.7966 9.93763V9.00203C11.7966 8.8897 11.8877 8.79864 12 8.79864C12.1123 8.79864 12.2034 8.8897 12.2034 9.00203V9.73424H12.7485C12.8608 9.73424 12.9519 9.8253 12.9519 9.93763C12.9519 10.05 12.8608 10.141 12.7485 10.141H12.7505ZM12 4.14915C11.8877 4.14915 11.7966 4.05809 11.7966 3.94576V0.20339C11.7966 0.0910607 11.8877 0 12 0C12.1123 0 12.2034 0.0910607 12.2034 0.20339V3.94576C12.2034 4.05809 12.1123 4.14915 12 4.14915Z" fill="#03435F"/>
<path d="M14.6237 2.64402H12C11.8876 2.64402 11.7966 2.55295 11.7966 2.44063V0.573507C11.7966 0.461178 11.8876 0.370117 12 0.370117H14.6237C14.699 0.370004 14.7682 0.411499 14.8036 0.477973C14.8389 0.544448 14.8347 0.625022 14.7925 0.687406L14.3085 1.40537L14.8047 2.35113C14.8355 2.41391 14.8318 2.48809 14.7951 2.54756C14.7583 2.60703 14.6936 2.64346 14.6237 2.64402ZM12.2034 2.23724H14.2881L13.8915 1.48673C13.8589 1.42163 13.8635 1.34406 13.9037 1.28334L14.2373 0.776897H12.2034V2.23724ZM14.0623 20.6298H9.94167C9.82934 20.6298 9.73828 20.5387 9.73828 20.4264V16.0677C9.73828 15.6701 10.0606 15.3477 10.4583 15.3477H13.5457C13.9434 15.3477 14.2657 15.6701 14.2657 16.0677V20.4203C14.2674 20.4753 14.2467 20.5286 14.2084 20.5681C14.17 20.6075 14.1174 20.6298 14.0623 20.6298ZM10.1451 20.223H13.859V16.0677C13.859 15.8948 13.7187 15.7545 13.5457 15.7545H10.4583C10.2853 15.7545 10.1451 15.8948 10.1451 16.0677V20.223Z" fill="#03435F"/>
<path d="M15.9356 21.7629H8.0685C7.95617 21.7629 7.86511 21.6718 7.86511 21.5595V20.4368C7.86511 20.3245 7.95617 20.2334 8.0685 20.2334H15.9356C16.0479 20.2334 16.139 20.3245 16.139 20.4368V21.5595C16.139 21.6718 16.0479 21.7629 15.9356 21.7629ZM8.27393 21.3561H15.7322V20.6402H8.27189L8.27393 21.3561Z" fill="#03435F"/>
<path d="M16.8814 22.8773H7.13289C7.02057 22.8773 6.9295 22.7863 6.9295 22.6739V21.5593C6.9295 21.447 7.02057 21.356 7.13289 21.356H16.8814C16.9937 21.356 17.0848 21.447 17.0848 21.5593V22.6821C17.0804 22.7912 16.9906 22.8774 16.8814 22.8773ZM7.34645 22.4705H16.678V21.7627H7.33628L7.34645 22.4705Z" fill="#03435F"/>
<path d="M17.4326 24.0002H6.57155C6.45923 24.0002 6.36816 23.9091 6.36816 23.7968V22.6741C6.36816 22.5618 6.45923 22.4707 6.57155 22.4707H17.4326C17.5449 22.4707 17.636 22.5618 17.636 22.6741V23.7968C17.636 23.9091 17.5449 24.0002 17.4326 24.0002ZM6.77291 23.5934H17.2292V22.8775H6.77494L6.77291 23.5934Z" fill="#03435F"/>
</svg>

