<svg width="18" height="21" viewBox="0 0 18 21" fill="none" xmlns="http://www.w3.org/2000/svg">
<path d="M18 9.9366C18 9.65382 17.9325 9.38847 17.8195 9.14729C17.0656 6.71529 13.5363 6.89294 8.51596 6.77431C7.67662 6.75464 8.15672 5.76351 8.45131 3.58786C8.64301 2.17284 7.73059 0 6.19695 0C3.66825 0 6.10082 1.99463 3.86501 6.92723C2.67037 9.56275 0 8.08645 0 10.7338V16.7598C0 17.7903 0.101193 18.7809 1.5505 18.9439C2.9554 19.1019 2.63945 20.1031 4.66613 20.1031H14.8102C15.8435 20.1031 16.6839 19.2621 16.6839 18.2288C16.6839 17.8004 16.5338 17.4103 16.2915 17.0943C16.865 16.7733 17.2585 16.1673 17.2585 15.4646C17.2585 15.0373 17.1089 14.6471 16.8672 14.3318C17.4423 14.0113 17.837 13.4047 17.837 12.7009C17.837 12.1898 17.6301 11.7266 17.2967 11.3876C17.7223 11.0441 18 10.5246 18 9.9366Z" fill="#FFDB5E"/>
</svg>
