<svg width="24" height="26" viewBox="0 0 24 26" fill="none" xmlns="http://www.w3.org/2000/svg">
<g clip-path="url(#clip0_12_213)">
<path d="M23.9873 13.2297C23.9873 12.2235 23.9057 11.4892 23.729 10.7278H12.239V15.2693H18.9833C18.8474 16.3979 18.1132 18.0976 16.4814 19.2398L16.4585 19.3918L20.0915 22.2062L20.3431 22.2313C22.6547 20.0965 23.9873 16.9554 23.9873 13.2297" fill="#4285F4"/>
<path d="M12.239 25.1956C15.5431 25.1956 18.317 24.1077 20.3431 22.2313L16.4814 19.2398C15.448 19.9605 14.061 20.4636 12.239 20.4636C9.00279 20.4636 6.2561 18.3288 5.27698 15.3782L5.13347 15.3904L1.35592 18.3138L1.30652 18.4512C3.31894 22.4488 7.4526 25.1956 12.239 25.1956Z" fill="#34A853"/>
<path d="M5.27702 15.3781C5.01867 14.6167 4.86916 13.8008 4.86916 12.9578C4.86916 12.1147 5.01867 11.2989 5.26343 10.5374L5.25658 10.3752L1.4317 7.40479L1.30655 7.46431C0.47714 9.12323 0.0012207 10.9861 0.0012207 12.9578C0.0012207 14.9294 0.47714 16.7922 1.30655 18.4511L5.27702 15.3781" fill="#FBBC05"/>
<path d="M12.239 5.45189C14.5369 5.45189 16.087 6.44451 16.9709 7.27401L20.4247 3.9018C18.3035 1.93016 15.5431 0.719971 12.239 0.719971C7.4526 0.719971 3.31894 3.46666 1.30652 7.46431L5.26339 10.5374C6.2561 7.58673 9.00279 5.45189 12.239 5.45189" fill="#EB4335"/>
</g>
<defs>
<clipPath id="clip0_12_213">
<rect width="24" height="24.56" fill="white" transform="translate(0 0.719971)"/>
</clipPath>
</defs>
</svg>
