<svg width="88" height="88" viewBox="0 0 88 88" fill="none" xmlns="http://www.w3.org/2000/svg">
<circle cx="44" cy="44" r="44" fill="#80B918" fill-opacity="0.1"/>
<path d="M58.598 47.505C58.198 46.806 57.55 46.308 56.775 46.101C56 45.894 55.192 46.005 54.546 46.382L49.281 49.073C48.729 48.422 47.917 48 47 48H39C37.583 48 36.12 48.771 35.139 50H34C34 49.448 33.552 49 33 49H30C29.448 49 29 49.448 29 50V58C29 58.552 29.448 59 30 59H33C33.552 59 34 58.552 34 58H45C45.741 58 46.767 57.692 47.324 57.32L57.49 51.604L57.59 51.54C58.995 50.514 59.4 48.892 58.598 47.505ZM32 57H31V51H32V57ZM56.454 49.893L46.283 55.614C45.988 55.809 45.353 56 45 56H34V52H35.65C35.99 52 36.307 51.827 36.491 51.541C37.084 50.619 38.092 50 39 50H47C47.552 50 48 50.449 48 51C48 51.551 47.552 52 47 52H41C40.448 52 40 52.448 40 53C40 53.552 40.448 54 41 54H47C48.654 54 50 52.654 50 51C50 50.984 49.995 50.969 49.995 50.954L55.504 48.137C55.735 48.002 56.005 47.966 56.258 48.033C56.515 48.102 56.73 48.267 56.865 48.504C57.219 49.115 56.848 49.591 56.454 49.893ZM32 45H56C56.553 45 57 44.552 57 44V30C57 29.448 56.553 29 56 29H32C31.448 29 31 29.448 31 30V44C31 44.552 31.448 45 32 45ZM36.899 31H51.102C51.5 32.956 53.044 34.5 55 34.899V39.101C53.044 39.5 51.5 41.044 51.102 43H36.899C36.5 41.044 34.956 39.5 33 39.101V34.899C34.956 34.5 36.5 32.956 36.899 31ZM33 41.184C33.847 41.486 34.514 42.153 34.816 43H33V41.184ZM53.185 43C53.487 42.153 54.153 41.486 55 41.184V43H53.185ZM55 32.815C54.152 32.514 53.486 31.847 53.185 31H55V32.815ZM34.816 31C34.514 31.847 33.847 32.514 33 32.816V31H34.816Z" fill="#55A630"/>
<path d="M44 42C46.757 42 49 39.757 49 37C49 34.243 46.757 32 44 32C41.243 32 39 34.243 39 37C39 39.757 41.243 42 44 42ZM44 34C45.654 34 47 35.346 47 37C47 38.654 45.654 40 44 40C42.346 40 41 38.654 41 37C41 35.346 42.346 34 44 34Z" fill="#55A630"/>
</svg>
