<svg width="20" height="20" viewBox="0 0 20 20" fill="none" xmlns="http://www.w3.org/2000/svg">
<path d="M9.99999 18.6696C5.2462 18.6696 1.3793 14.8027 1.3793 10.0489C1.3793 5.29512 5.2462 1.42822 9.99999 1.42822C14.7538 1.42822 18.6207 5.29512 18.6207 10.0489C18.6207 14.8027 14.7538 18.6696 9.99999 18.6696ZM9.99999 2.80753C6.00689 2.80753 2.75861 6.05581 2.75861 10.0489C2.75861 14.042 6.00689 17.2903 9.99999 17.2903C13.9931 17.2903 17.2414 14.0413 17.2414 10.0489C17.2414 6.0565 13.9931 2.80753 9.99999 2.80753Z" fill="white"/>
<path d="M10 14.8764C9.8171 14.8764 9.64168 14.8037 9.51234 14.6744C9.38301 14.545 9.31035 14.3696 9.31035 14.1867V5.91085C9.31035 5.72794 9.38301 5.55252 9.51234 5.42319C9.64168 5.29385 9.8171 5.22119 10 5.22119C10.1829 5.22119 10.3583 5.29385 10.4877 5.42319C10.617 5.55252 10.6897 5.72794 10.6897 5.91085V14.1867C10.6897 14.3696 10.617 14.545 10.4877 14.6744C10.3583 14.8037 10.1829 14.8764 10 14.8764Z" fill="white"/>
<path d="M14.1379 10.7387H5.86206C5.67916 10.7387 5.50374 10.666 5.3744 10.5367C5.24507 10.4074 5.17241 10.2319 5.17241 10.049C5.17241 9.86612 5.24507 9.69071 5.3744 9.56137C5.50374 9.43204 5.67916 9.35938 5.86206 9.35938H14.1379C14.3208 9.35938 14.4963 9.43204 14.6256 9.56137C14.7549 9.69071 14.8276 9.86612 14.8276 10.049C14.8276 10.2319 14.7549 10.4074 14.6256 10.5367C14.4963 10.666 14.3208 10.7387 14.1379 10.7387Z" fill="white"/>
</svg>
