<svg width="214" height="40" viewBox="0 0 214 40" fill="none" xmlns="http://www.w3.org/2000/svg">
<rect width="214" height="40" rx="4" fill="#55A630"/>
<path d="M57 28.6696C52.2462 28.6696 48.3793 24.8027 48.3793 20.0489C48.3793 15.2951 52.2462 11.4282 57 11.4282C61.7538 11.4282 65.6207 15.2951 65.6207 20.0489C65.6207 24.8027 61.7538 28.6696 57 28.6696ZM57 12.8075C53.0069 12.8075 49.7586 16.0558 49.7586 20.0489C49.7586 24.042 53.0069 27.2903 57 27.2903C60.9931 27.2903 64.2414 24.0413 64.2414 20.0489C64.2414 16.0565 60.9931 12.8075 57 12.8075Z" fill="white"/>
<path d="M57 24.8764C56.8171 24.8764 56.6417 24.8037 56.5123 24.6744C56.383 24.545 56.3103 24.3696 56.3103 24.1867V15.9108C56.3103 15.7279 56.383 15.5525 56.5123 15.4232C56.6417 15.2939 56.8171 15.2212 57 15.2212C57.1829 15.2212 57.3583 15.2939 57.4877 15.4232C57.617 15.5525 57.6897 15.7279 57.6897 15.9108V24.1867C57.6897 24.3696 57.617 24.545 57.4877 24.6744C57.3583 24.8037 57.1829 24.8764 57 24.8764Z" fill="white"/>
<path d="M61.1379 20.7387H52.8621C52.6792 20.7387 52.5037 20.666 52.3744 20.5367C52.2451 20.4074 52.1724 20.2319 52.1724 20.049C52.1724 19.8661 52.2451 19.6907 52.3744 19.5614C52.5037 19.432 52.6792 19.3594 52.8621 19.3594H61.1379C61.3208 19.3594 61.4963 19.432 61.6256 19.5614C61.7549 19.6907 61.8276 19.8661 61.8276 20.049C61.8276 20.2319 61.7549 20.4074 61.6256 20.5367C61.4963 20.666 61.3208 20.7387 61.1379 20.7387Z" fill="white"/>
<path d="M82.8864 25.5H81.4091L85.6818 13.8636H87.1364L91.4091 25.5H89.9318L86.4545 15.7045H86.3636L82.8864 25.5ZM83.4318 20.9545H89.3864V22.2045H83.4318V20.9545ZM96.3352 25.6818C95.608 25.6818 94.9659 25.4981 94.4091 25.1307C93.8523 24.7595 93.4167 24.2367 93.1023 23.5625C92.7879 22.8845 92.6307 22.0833 92.6307 21.1591C92.6307 20.2424 92.7879 19.447 93.1023 18.7727C93.4167 18.0985 93.8542 17.5777 94.4148 17.2102C94.9754 16.8428 95.6231 16.6591 96.358 16.6591C96.9261 16.6591 97.375 16.7538 97.7045 16.9432C98.0379 17.1288 98.2917 17.3409 98.4659 17.5795C98.6439 17.8144 98.7822 18.0076 98.8807 18.1591H98.9943V13.8636H100.335V25.5H99.0398V24.1591H98.8807C98.7822 24.3182 98.642 24.5189 98.4602 24.7614C98.2784 25 98.0189 25.214 97.6818 25.4034C97.3447 25.589 96.8958 25.6818 96.3352 25.6818ZM96.517 24.4773C97.0549 24.4773 97.5095 24.3371 97.8807 24.0568C98.2519 23.7727 98.5341 23.3807 98.7273 22.8807C98.9205 22.3769 99.017 21.7955 99.017 21.1364C99.017 20.4848 98.9223 19.9148 98.733 19.4261C98.5436 18.9337 98.2633 18.5511 97.892 18.2784C97.5208 18.0019 97.0625 17.8636 96.517 17.8636C95.9489 17.8636 95.4754 18.0095 95.0966 18.3011C94.7216 18.589 94.4394 18.9811 94.25 19.4773C94.0644 19.9697 93.9716 20.5227 93.9716 21.1364C93.9716 21.7576 94.0663 22.322 94.2557 22.8295C94.4489 23.3333 94.733 23.7348 95.108 24.0341C95.4867 24.3295 95.9564 24.4773 96.517 24.4773ZM106.273 25.6818C105.545 25.6818 104.903 25.4981 104.347 25.1307C103.79 24.7595 103.354 24.2367 103.04 23.5625C102.725 22.8845 102.568 22.0833 102.568 21.1591C102.568 20.2424 102.725 19.447 103.04 18.7727C103.354 18.0985 103.792 17.5777 104.352 17.2102C104.913 16.8428 105.561 16.6591 106.295 16.6591C106.864 16.6591 107.313 16.7538 107.642 16.9432C107.975 17.1288 108.229 17.3409 108.403 17.5795C108.581 17.8144 108.72 18.0076 108.818 18.1591H108.932V13.8636H110.273V25.5H108.977V24.1591H108.818C108.72 24.3182 108.58 24.5189 108.398 24.7614C108.216 25 107.956 25.214 107.619 25.4034C107.282 25.589 106.833 25.6818 106.273 25.6818ZM106.455 24.4773C106.992 24.4773 107.447 24.3371 107.818 24.0568C108.189 23.7727 108.472 23.3807 108.665 22.8807C108.858 22.3769 108.955 21.7955 108.955 21.1364C108.955 20.4848 108.86 19.9148 108.67 19.4261C108.481 18.9337 108.201 18.5511 107.83 18.2784C107.458 18.0019 107 17.8636 106.455 17.8636C105.886 17.8636 105.413 18.0095 105.034 18.3011C104.659 18.589 104.377 18.9811 104.188 19.4773C104.002 19.9697 103.909 20.5227 103.909 21.1364C103.909 21.7576 104.004 22.322 104.193 22.8295C104.386 23.3333 104.67 23.7348 105.045 24.0341C105.424 24.3295 105.894 24.4773 106.455 24.4773ZM117.415 25.5V16.7727H118.71V18.1364H118.824C119.006 17.6705 119.299 17.3087 119.705 17.0511C120.11 16.7898 120.597 16.6591 121.165 16.6591C121.741 16.6591 122.22 16.7898 122.602 17.0511C122.989 17.3087 123.29 17.6705 123.506 18.1364H123.597C123.82 17.6856 124.155 17.3277 124.602 17.0625C125.049 16.7936 125.585 16.6591 126.21 16.6591C126.991 16.6591 127.629 16.9034 128.125 17.392C128.621 17.8769 128.869 18.6326 128.869 19.6591V25.5H127.528V19.6591C127.528 19.0152 127.352 18.5549 127 18.2784C126.648 18.0019 126.233 17.8636 125.756 17.8636C125.142 17.8636 124.667 18.0492 124.33 18.4205C123.992 18.7879 123.824 19.2538 123.824 19.8182V25.5H122.46V19.5227C122.46 19.0265 122.299 18.6269 121.977 18.3239C121.655 18.017 121.241 17.8636 120.733 17.8636C120.384 17.8636 120.059 17.9564 119.756 18.142C119.456 18.3277 119.214 18.5852 119.028 18.9148C118.847 19.2405 118.756 19.6174 118.756 20.0455V25.5H117.415ZM134.866 25.6818C134.079 25.6818 133.387 25.4943 132.793 25.1193C132.202 24.7443 131.74 24.2197 131.406 23.5455C131.077 22.8712 130.912 22.0833 130.912 21.1818C130.912 20.2727 131.077 19.4792 131.406 18.8011C131.74 18.1231 132.202 17.5966 132.793 17.2216C133.387 16.8466 134.079 16.6591 134.866 16.6591C135.654 16.6591 136.344 16.8466 136.935 17.2216C137.529 17.5966 137.991 18.1231 138.321 18.8011C138.654 19.4792 138.821 20.2727 138.821 21.1818C138.821 22.0833 138.654 22.8712 138.321 23.5455C137.991 24.2197 137.529 24.7443 136.935 25.1193C136.344 25.4943 135.654 25.6818 134.866 25.6818ZM134.866 24.4773C135.465 24.4773 135.957 24.3239 136.344 24.017C136.73 23.7102 137.016 23.3068 137.202 22.8068C137.387 22.3068 137.48 21.7652 137.48 21.1818C137.48 20.5985 137.387 20.0549 137.202 19.5511C137.016 19.0473 136.73 18.6402 136.344 18.3295C135.957 18.0189 135.465 17.8636 134.866 17.8636C134.268 17.8636 133.776 18.0189 133.389 18.3295C133.003 18.6402 132.717 19.0473 132.531 19.5511C132.346 20.0549 132.253 20.5985 132.253 21.1818C132.253 21.7652 132.346 22.3068 132.531 22.8068C132.717 23.3068 133.003 23.7102 133.389 24.017C133.776 24.3239 134.268 24.4773 134.866 24.4773ZM142.209 20.25V25.5H140.868V16.7727H142.163V18.1364H142.277C142.482 17.6932 142.792 17.3371 143.209 17.0682C143.625 16.7955 144.163 16.6591 144.822 16.6591C145.413 16.6591 145.93 16.7803 146.374 17.0227C146.817 17.2614 147.161 17.625 147.408 18.1136C147.654 18.5985 147.777 19.2121 147.777 19.9545V25.5H146.436V20.0455C146.436 19.3598 146.258 18.8258 145.902 18.4432C145.546 18.0568 145.057 17.8636 144.436 17.8636C144.008 17.8636 143.625 17.9564 143.288 18.142C142.955 18.3277 142.692 18.5985 142.499 18.9545C142.305 19.3106 142.209 19.7424 142.209 20.25ZM153.886 25.6818C153.045 25.6818 152.32 25.4962 151.71 25.125C151.104 24.75 150.636 24.2273 150.307 23.5568C149.981 22.8826 149.818 22.0985 149.818 21.2045C149.818 20.3106 149.981 19.5227 150.307 18.8409C150.636 18.1553 151.095 17.6212 151.682 17.2386C152.273 16.8523 152.962 16.6591 153.75 16.6591C154.205 16.6591 154.653 16.7348 155.097 16.8864C155.54 17.0379 155.943 17.2841 156.307 17.625C156.67 17.9621 156.96 18.4091 157.176 18.9659C157.392 19.5227 157.5 20.2083 157.5 21.0227V21.5909H150.773V20.4318H156.136C156.136 19.9394 156.038 19.5 155.841 19.1136C155.648 18.7273 155.371 18.4223 155.011 18.1989C154.655 17.9754 154.235 17.8636 153.75 17.8636C153.216 17.8636 152.754 17.9962 152.364 18.2614C151.977 18.5227 151.68 18.8636 151.472 19.2841C151.263 19.7045 151.159 20.1553 151.159 20.6364V21.4091C151.159 22.0682 151.273 22.6269 151.5 23.0852C151.731 23.5398 152.051 23.8864 152.46 24.125C152.869 24.3598 153.345 24.4773 153.886 24.4773C154.239 24.4773 154.557 24.428 154.841 24.3295C155.129 24.2273 155.377 24.0758 155.585 23.875C155.794 23.6705 155.955 23.4167 156.068 23.1136L157.364 23.4773C157.227 23.9167 156.998 24.303 156.676 24.6364C156.354 24.9659 155.956 25.2235 155.483 25.4091C155.009 25.5909 154.477 25.6818 153.886 25.6818ZM160.138 28.7727C159.911 28.7727 159.708 28.7538 159.53 28.7159C159.352 28.6818 159.229 28.6477 159.161 28.6136L159.501 27.4318C159.827 27.5152 160.115 27.5455 160.365 27.5227C160.615 27.5 160.837 27.3883 161.03 27.1875C161.227 26.9905 161.407 26.6705 161.57 26.2273L161.82 25.5455L158.592 16.7727H160.047L162.456 23.7273H162.547L164.956 16.7727H166.411L162.706 26.7727C162.539 27.2235 162.333 27.5966 162.087 27.892C161.84 28.1913 161.554 28.4129 161.229 28.5568C160.907 28.7008 160.543 28.7727 160.138 28.7727Z" fill="white"/>
</svg>
